# xmcd
#
# Track frame offsets: 
#        300
#        15793
#        36635
#        57502
#        77063
#        93451
#        106893
#        124826
#        138984
#        153253
#        167990
#        185199
#        201576
#        213285
#        229977
#        245380
#        263540
#        278338
#        297211
#        314956
#
# Disc length: 4404 seconds
#
# Revision: 0
# Processed by: cddbd v1.5.2PL0 Copyright (c) Steve Scherf et al.
# Submitted via: ExactAudioCopy v0.99pb3
#
DISCID=29113014
DTITLE=Various Artist - CD Pool - Hits (2009-10)
DYEAR=2009
DGENRE=Pop
TTITLE0=Alexandra Burke feat. Flo Rida - Bad Boys
TTITLE1=Jay-Z feat. Alicia Keys - Empire State Of Mind
TTITLE2=Beyoncé - Broken Hearted Girl
TTITLE3=Dizzee Rascal - Dirtee Cash
TTITLE4=Paloma Faith - New York
TTITLE5=Cascada - Dangerous
TTITLE6=Pitbull - Hotel Room Service
TTITLE7=Medina - You And I
TTITLE8=Deadmau5 feat. Rob Swire - Ghosts and Stuff
TTITLE9=JLS - Everybody In Love
TTITLE10=Tinchy Stryder - You're Not Alone
TTITLE11=Paramore - Ignorance
TTITLE12=Armand Van Helden and A-Trak Present Duck Sauce - Anyway
TTITLE13=Florence and The Machine - Drumming Song
TTITLE14=Backstreet Boys - Straight Through My Heart
TTITLE15=Mumford and Sons - Little Lion Man
TTITLE16=Cobra Starship feat. Leighton Meester - Good Girls Go Bad
TTITLE17=Daughtry - What About Now
TTITLE18=Young Soul Rebels - I Got Soul
TTITLE19=Naturi Naughton - Fame
EXTD=
EXTT0=
EXTT1=
EXTT2=
EXTT3=
EXTT4=
EXTT5=
EXTT6=
EXTT7=
EXTT8=
EXTT9=
EXTT10=
EXTT11=
EXTT12=
EXTT13=
EXTT14=
EXTT15=
EXTT16=
EXTT17=
EXTT18=
EXTT19=
PLAYORDER=
